<svg width="57" height="27" viewBox="0 0 57 27" fill="none" xmlns="http://www.w3.org/2000/svg">
<mask id="mask0_2004_682" style="mask-type:alpha" maskUnits="userSpaceOnUse" x="0" y="0" width="25" height="24">
<rect x="0.5" width="24" height="24" fill="#D9D9D9"/>
</mask>
<g mask="url(#mask0_2004_682)">
<path d="M12.5 22C12.0667 22 11.675 21.8958 11.325 21.6875C10.975 21.4792 10.7 21.2 10.5 20.85C9.95 20.85 9.47917 20.6542 9.0875 20.2625C8.69583 19.8708 8.5 19.4 8.5 18.85V15.3C7.51667 14.65 6.72917 13.7917 6.1375 12.725C5.54583 11.6583 5.25 10.5 5.25 9.25C5.25 7.23333 5.95417 5.52083 7.3625 4.1125C8.77083 2.70417 10.4833 2 12.5 2C14.5167 2 16.2292 2.70417 17.6375 4.1125C19.0458 5.52083 19.75 7.23333 19.75 9.25C19.75 10.5333 19.4542 11.7 18.8625 12.75C18.2708 13.8 17.4833 14.65 16.5 15.3V18.85C16.5 19.4 16.3042 19.8708 15.9125 20.2625C15.5208 20.6542 15.05 20.85 14.5 20.85C14.3 21.2 14.025 21.4792 13.675 21.6875C13.325 21.8958 12.9333 22 12.5 22ZM10.5 18.85H14.5V17.95H10.5V18.85ZM10.5 16.95H14.5V16H10.5V16.95ZM10.3 14H11.75V11.3L9.55 9.1L10.6 8.05L12.5 9.95L14.4 8.05L15.45 9.1L13.25 11.3V14H14.7C15.6 13.5667 16.3333 12.9292 16.9 12.0875C17.4667 11.2458 17.75 10.3 17.75 9.25C17.75 7.78333 17.2417 6.54167 16.225 5.525C15.2083 4.50833 13.9667 4 12.5 4C11.0333 4 9.79167 4.50833 8.775 5.525C7.75833 6.54167 7.25 7.78333 7.25 9.25C7.25 10.3 7.53333 11.2458 8.1 12.0875C8.66667 12.9292 9.4 13.5667 10.3 14Z" fill="#FF3366"/>
</g>
<path d="M32.2981 9.38V10.868H29.3381V20.5H27.5141V10.868H24.5381V9.38H32.2981ZM35.0733 10.516C34.7426 10.516 34.4653 10.404 34.2413 10.18C34.0173 9.956 33.9053 9.67867 33.9053 9.348C33.9053 9.01733 34.0173 8.74 34.2413 8.516C34.4653 8.292 34.7426 8.18 35.0733 8.18C35.3933 8.18 35.6653 8.292 35.8893 8.516C36.1133 8.74 36.2253 9.01733 36.2253 9.348C36.2253 9.67867 36.1133 9.956 35.8893 10.18C35.6653 10.404 35.3933 10.516 35.0733 10.516ZM35.9693 11.684V20.5H34.1453V11.684H35.9693ZM40.1881 12.98C40.4974 12.5747 40.9187 12.2333 41.4521 11.956C41.9854 11.6787 42.5881 11.54 43.2601 11.54C44.0281 11.54 44.7267 11.732 45.3561 12.116C45.9961 12.4893 46.4974 13.0173 46.8601 13.7C47.2227 14.3827 47.4041 15.1667 47.4041 16.052C47.4041 16.9373 47.2227 17.732 46.8601 18.436C46.4974 19.1293 45.9961 19.6733 45.3561 20.068C44.7267 20.452 44.0281 20.644 43.2601 20.644C42.5881 20.644 41.9907 20.5107 41.4681 20.244C40.9454 19.9667 40.5187 19.6253 40.1881 19.22V24.692H38.3641V11.684H40.1881V12.98ZM45.5481 16.052C45.5481 15.444 45.4201 14.9213 45.1641 14.484C44.9187 14.036 44.5881 13.7 44.1721 13.476C43.7667 13.2413 43.3294 13.124 42.8601 13.124C42.4014 13.124 41.9641 13.2413 41.5481 13.476C41.1427 13.7107 40.8121 14.052 40.5561 14.5C40.3107 14.948 40.1881 15.476 40.1881 16.084C40.1881 16.692 40.3107 17.2253 40.5561 17.684C40.8121 18.132 41.1427 18.4733 41.5481 18.708C41.9641 18.9427 42.4014 19.06 42.8601 19.06C43.3294 19.06 43.7667 18.9427 44.1721 18.708C44.5881 18.4627 44.9187 18.1107 45.1641 17.652C45.4201 17.1933 45.5481 16.66 45.5481 16.052ZM54.1001 20.612C53.7694 20.612 53.4921 20.5 53.2681 20.276C53.0441 20.052 52.9321 19.7747 52.9321 19.444C52.9321 19.1133 53.0441 18.836 53.2681 18.612C53.4921 18.388 53.7694 18.276 54.1001 18.276C54.4201 18.276 54.6921 18.388 54.9161 18.612C55.1401 18.836 55.2521 19.1133 55.2521 19.444C55.2521 19.7747 55.1401 20.052 54.9161 20.276C54.6921 20.5 54.4201 20.612 54.1001 20.612ZM54.1001 13.892C53.7694 13.892 53.4921 13.78 53.2681 13.556C53.0441 13.332 52.9321 13.0547 52.9321 12.724C52.9321 12.3933 53.0441 12.116 53.2681 11.892C53.4921 11.668 53.7694 11.556 54.1001 11.556C54.4201 11.556 54.6921 11.668 54.9161 11.892C55.1401 12.116 55.2521 12.3933 55.2521 12.724C55.2521 13.0547 55.1401 13.332 54.9161 13.556C54.6921 13.78 54.4201 13.892 54.1001 13.892Z" fill="#FF99B7"/>
</svg>
