<svg width="231" height="46" viewBox="0 0 231 46" fill="none" xmlns="http://www.w3.org/2000/svg">
<mask id="mask0_274_2593" style="mask-type:luminance" maskUnits="userSpaceOnUse" x="0" y="0" width="231" height="46">
<path d="M231 0.5H0V45.4308H231V0.5Z" fill="white"/>
</mask>
<g mask="url(#mask0_274_2593)">
<path d="M110.511 11.2874C114.699 11.2874 117.593 12.5177 119.194 14.9783C120.795 17.5004 121.595 20.9452 121.595 25.3128V41.0607C121.595 42.1064 121.226 43.0292 120.548 43.7058C119.871 44.444 118.947 44.8131 117.901 44.8131C116.854 44.8131 115.93 44.444 115.253 43.7058C114.575 43.0292 114.206 42.1064 114.206 41.0607V25.3128C114.206 23.0367 113.713 21.2528 112.79 19.961C111.866 18.6692 110.203 18.054 107.925 18.054C105.524 18.054 103.676 18.7307 102.322 20.084C100.967 21.4989 100.29 23.2213 100.29 25.3128V41.0607C100.29 42.1064 99.9201 43.0292 99.2428 43.7058C98.5654 44.444 97.6418 44.8131 96.595 44.8131C95.5482 44.8131 94.6245 44.444 93.9472 43.7058C93.2699 43.0292 92.9004 42.1064 92.9004 41.0607V15.6549C92.9004 14.6092 93.2699 13.6864 93.9472 12.9483C94.6245 12.2716 95.5482 11.9025 96.595 11.9025C97.6418 11.9025 98.5654 12.2716 99.2428 12.9483C99.9201 13.6864 100.29 14.6092 100.29 15.6549V16.7007C101.398 15.2243 102.876 13.9325 104.662 12.8867C106.386 11.841 108.356 11.2874 110.511 11.2874Z" fill="white"/>
<path d="M131.418 41.0605C131.418 42.1063 131.049 43.029 130.372 43.7057C129.694 44.4439 128.771 44.8129 127.724 44.8129C126.677 44.8129 125.753 44.4439 125.076 43.7057C124.399 43.029 124.029 42.1063 124.029 41.0605V15.6548C124.029 14.609 124.399 13.6863 125.076 12.9481C125.753 12.2714 126.677 11.9023 127.724 11.9023C128.771 11.9023 129.694 12.2714 130.372 12.9481C131.049 13.6863 131.418 14.609 131.418 15.6548V41.0605Z" fill="white"/>
<path d="M15.0576 11.501C15.1811 11.501 15.3173 11.5034 15.4532 11.5072C18.2812 11.5861 20.9483 12.3522 23.4429 13.8043C25.9498 15.2576 27.9384 17.2488 29.3956 19.7766C29.8525 20.6526 29.9142 21.5421 29.5807 22.4464C29.2473 23.3507 28.6546 24.0489 27.8025 24.5424L10.1553 34.7204C11.7977 36.5759 13.7242 37.6567 15.947 37.9663C16.4287 38.0342 16.9102 38.0674 17.3918 38.0674L17.4907 38.0662C19.1332 38.0477 20.6892 37.6147 22.1711 36.7634C23.6284 35.9208 24.6905 35.13 25.3574 34.3898C26.0242 33.6495 26.5055 32.9896 26.8142 32.4085C27.1229 31.8287 27.3329 31.4338 27.4564 31.2241C27.9133 30.5332 28.4199 30.0237 28.988 29.6943C29.482 29.4118 30.0006 29.2699 30.5317 29.2687L30.6058 29.27C30.8652 29.2761 31.1244 29.3156 31.3837 29.3859C32.2234 29.6117 32.8533 30.0805 33.2608 30.7924C33.8165 31.7546 33.8289 32.9143 33.2855 34.2738C32.7545 35.6691 31.8156 37.1348 30.4695 38.6707C29.1235 40.2067 27.5922 41.4688 25.888 42.4557C22.8871 44.1829 19.9236 45.065 16.9721 45.1044C16.9227 45.1044 16.8852 45.1045 16.8358 45.1057H16.7002C13.8475 45.0958 11.2293 44.3692 8.83351 42.9245C6.35129 41.4342 4.32608 39.3172 2.73301 36.5747C0.96706 33.5127 0.0532584 30.453 0.00386111 27.3984C-0.0578855 24.3425 0.621472 21.5951 2.0046 19.1524C3.40007 16.7109 5.28964 14.8011 7.68541 13.4231C9.88359 12.1511 12.3039 11.5096 14.9219 11.501H15.0576ZM15.1565 18.2C13.724 18.1938 12.3658 18.5602 11.0815 19.3004C6.94445 21.6852 5.62312 25.0347 7.11739 29.3477L21.1334 21.267L20.9115 20.8931C19.9112 19.4793 18.4289 18.6194 16.5024 18.3122C16.0702 18.2444 15.6503 18.2074 15.2427 18.2012L15.1565 18.2Z" fill="white"/>
<path d="M212.354 11.501C212.477 11.501 212.613 11.5034 212.749 11.5072C215.577 11.5861 218.244 12.3522 220.739 13.8043C223.246 15.2576 225.234 17.2488 226.692 19.7766C227.148 20.6526 227.21 21.5421 226.877 22.4464C226.543 23.3507 225.951 24.0489 225.098 24.5424L207.451 34.7204C209.094 36.5759 211.02 37.6567 213.243 37.9663C213.725 38.0342 214.206 38.0674 214.688 38.0674L214.787 38.0662C216.429 38.0477 217.985 37.6147 219.467 36.7634C220.924 35.9208 221.986 35.13 222.653 34.3898C223.32 33.6495 223.801 32.9896 224.11 32.4085C224.419 31.8287 224.629 31.4338 224.752 31.2241C225.209 30.5332 225.716 30.0237 226.284 29.6943C226.778 29.4118 227.297 29.2699 227.828 29.2687L227.902 29.27C228.161 29.2761 228.42 29.3156 228.68 29.3859C229.519 29.6117 230.149 30.0805 230.557 30.7924C231.112 31.7546 231.125 32.9143 230.581 34.2738C230.05 35.6691 229.112 37.1348 227.765 38.6707C226.419 40.2067 224.888 41.4688 223.184 42.4557C220.183 44.1829 217.22 45.065 214.268 45.1044C214.219 45.1044 214.181 45.1045 214.132 45.1057H213.996C211.143 45.0958 208.525 44.3692 206.129 42.9245C203.647 41.4342 201.622 39.3172 200.029 36.5747C198.263 33.5127 197.349 30.453 197.3 27.3984C197.238 24.3425 197.917 21.5951 199.3 19.1524C200.696 16.7109 202.586 14.8011 204.981 13.4231C207.179 12.1511 209.6 11.5096 212.218 11.501H212.354ZM212.452 18.2C211.02 18.1938 209.662 18.5602 208.377 19.3004C204.24 21.6852 202.919 25.0347 204.413 29.3477L218.429 21.267L218.207 20.8931C217.207 19.4793 215.725 18.6194 213.798 18.3122C213.366 18.2444 212.946 18.2074 212.539 18.2012L212.452 18.2Z" fill="white"/>
<path d="M47.5146 11.5429C51.8862 11.5947 56.1097 13.6957 58.5919 17.1883C61.5063 21.3187 62.2596 26.8149 61.4692 31.7583C60.4072 38.4264 55.2699 44.6998 47.5146 44.7898C43.8221 44.8046 40.1296 44.8293 36.4371 44.7898C34.6094 44.7319 33.0659 43.1947 33.0165 41.3713C32.9177 32.5688 32.9177 23.7639 33.0165 14.9615C33.0659 13.1442 34.6094 11.6021 36.4371 11.5429C40.1296 11.5046 43.8221 11.5293 47.5146 11.5429ZM40.1666 18.2419V38.0909C44.9829 38.0909 50.3302 39.0531 52.7878 34.861C55.9739 29.3982 54.8624 20.5773 49.5275 18.6589C46.823 17.6818 43.4145 18.2419 40.1666 18.2419Z" fill="white"/>
<path d="M158.942 42.9398C158.776 43.0554 158.569 43.1669 158.362 43.2742C155.8 44.7109 152.99 45.4252 149.932 45.4252C146.792 45.4252 143.981 44.7109 141.419 43.2742C138.856 41.8375 136.874 39.8187 135.386 37.2136C133.898 34.6086 133.153 31.6691 133.153 28.387C133.153 25.1049 133.898 22.1654 135.386 19.5603C136.874 16.9553 138.856 14.9241 141.419 13.4708C143.981 12.0135 146.792 11.2869 149.932 11.2869C152.99 11.2869 155.8 12.0135 158.362 13.4708C160.966 14.9241 162.951 16.9553 164.438 19.5603C165.926 22.1654 166.669 25.1049 166.669 28.387C166.669 31.6691 165.926 34.6086 164.438 37.2136C164.356 37.3788 164.272 37.5439 164.148 37.7049L165.594 39.1251C167.041 40.566 167.041 42.9068 165.594 44.3476C164.148 45.7885 161.793 45.7885 160.346 44.3476L158.942 42.9398ZM158.693 32.2265C159.065 31.054 159.273 29.7742 159.273 28.387C159.273 26.3764 158.859 24.5847 158.033 23.0035C157.165 21.4264 156.048 20.2044 154.643 19.3456C153.196 18.4828 151.627 18.0534 149.932 18.0534C148.197 18.0534 146.627 18.4828 145.222 19.3456C143.775 20.2044 142.658 21.4264 141.832 23.0035C140.964 24.5847 140.552 26.3764 140.552 28.387C140.552 30.3976 140.964 32.181 141.832 33.7375C142.658 35.298 143.775 36.5077 145.222 37.3664C146.627 38.2292 148.197 38.6586 149.932 38.6586C151.296 38.6586 152.618 38.3779 153.816 37.8081L151.09 35.0999C149.643 33.659 149.643 31.3223 151.09 29.8815C152.536 28.4407 154.891 28.4407 156.338 29.8815L158.693 32.2265Z" fill="white"/>
<path d="M87.2693 23.7759C88.319 23.7759 89.2452 24.146 89.9244 24.8862C90.6036 25.5647 90.9741 26.49 90.9741 27.5387V31.2398C90.9741 35.6811 89.7391 39.1354 87.331 41.6645C84.8612 44.1936 81.3416 45.4273 76.8341 45.4273C72.3266 45.4273 68.807 44.1936 66.3989 41.6645C63.9908 39.1354 62.7559 35.6811 62.7559 31.2398V27.5387C62.7559 26.49 63.1263 25.5647 63.8056 24.8862C64.4848 24.146 65.411 23.7759 66.4607 23.7759C67.5103 23.7759 68.4365 24.146 69.1158 24.8862C69.795 25.5647 70.1655 26.49 70.1655 27.5387V31.2398C70.1655 33.7688 70.7212 35.6194 71.8326 36.7914C72.9441 38.0251 74.6112 38.6419 76.8341 38.6419C79.1187 38.6419 80.7859 38.0251 81.8973 36.7914C83.0088 35.6194 83.5645 33.7688 83.5645 31.2398V27.5387C83.5645 26.49 83.935 25.5647 84.6142 24.8862C85.2934 24.146 86.2196 23.7759 87.2693 23.7759Z" fill="#FF3366"/>
<path d="M66.4576 18.9221C68.5036 18.9221 70.1623 17.2652 70.1623 15.2212C70.1623 13.1772 68.5036 11.5203 66.4576 11.5203C64.4115 11.5203 62.7529 13.1772 62.7529 15.2212C62.7529 17.2652 64.4115 18.9221 66.4576 18.9221Z" fill="#FF3366"/>
<path d="M87.2671 18.9221C89.3131 18.9221 90.9719 17.2652 90.9719 15.2212C90.9719 13.1772 89.3131 11.5203 87.2671 11.5203C85.2211 11.5203 83.5625 13.1772 83.5625 15.2212C83.5625 17.2652 85.2211 18.9221 87.2671 18.9221Z" fill="#FF3366"/>
<path d="M192.648 23.7759C193.698 23.7759 194.624 24.146 195.303 24.8862C195.982 25.5647 196.353 26.49 196.353 27.5387V31.2398C196.353 35.6811 195.118 39.1354 192.71 41.6645C190.24 44.1936 186.721 45.4273 182.213 45.4273C177.705 45.4273 174.186 44.1936 171.778 41.6645C169.37 39.1354 168.135 35.6811 168.135 31.2398V27.5387C168.135 26.49 168.505 25.5647 169.184 24.8862C169.864 24.146 170.79 23.7759 171.84 23.7759C172.889 23.7759 173.815 24.146 174.495 24.8862C175.174 25.5647 175.544 26.49 175.544 27.5387V31.2398C175.544 33.7688 176.1 35.6194 177.212 36.7914C178.323 38.0251 179.99 38.6419 182.213 38.6419C184.498 38.6419 186.165 38.0251 187.276 36.7914C188.388 35.6194 188.943 33.7688 188.943 31.2398V27.5387C188.943 26.49 189.314 25.5647 189.993 24.8862C190.672 24.146 191.598 23.7759 192.648 23.7759Z" fill="#FF3366"/>
<path d="M171.836 18.9221C173.882 18.9221 175.541 17.2652 175.541 15.2212C175.541 13.1772 173.882 11.5203 171.836 11.5203C169.79 11.5203 168.132 13.1772 168.132 15.2212C168.132 17.2652 169.79 18.9221 171.836 18.9221Z" fill="#FF3366"/>
<path d="M192.646 18.9221C194.692 18.9221 196.351 17.2652 196.351 15.2212C196.351 13.1772 194.692 11.5203 192.646 11.5203C190.6 11.5203 188.941 13.1772 188.941 15.2212C188.941 17.2652 190.6 18.9221 192.646 18.9221Z" fill="#FF3366"/>
<path d="M127.709 7.90233C129.755 7.90233 131.413 6.24537 131.413 4.20141C131.413 2.15745 129.755 0.500488 127.709 0.500488C125.663 0.500488 124.004 2.15745 124.004 4.20141C124.004 6.24537 125.663 7.90233 127.709 7.90233Z" fill="#FF3366"/>
</g>
</svg>
